<svg width="1234" height="79" viewBox="0 0 1234 79" fill="none" xmlns="http://www.w3.org/2000/svg">
<path d="M2 34L70.3333 6L138.667 34L207 6L275.333 34L343.667 6L412 34L480.333 6L548.667 34L617 6L685.333 34L753.667 6L822 34L890.333 6L958.667 34L1027 6L1095.33 34L1163.67 6L1232 34" stroke="#0B5B8C" stroke-width="10"/>
<path d="M2 54L70.3333 25L138.667 54L207 25L275.333 54L343.667 25L412 54L480.333 25L548.667 54L617 25L685.333 54L753.667 25L822 54L890.333 25L958.667 54L1027 25L1095.33 54L1163.67 25L1232 54" stroke="#0B5B8C" stroke-width="10"/>
<path d="M2 73L70.3333 45L138.667 73L207 45L275.333 73L343.667 45L412 73L480.333 45L548.667 73L617 45L685.333 73L753.667 45L822 73L890.333 45L958.667 73L1027 45L1095.33 73L1163.67 45L1232 73" stroke="#0B5B8C" stroke-width="10"/>
</svg>
