<svg width="251" height="96" viewBox="0 0 251 96" fill="none" xmlns="http://www.w3.org/2000/svg">
<g clip-path="url(#clip0_214_39)">
<path d="M8.39061 72.7626H8.86401V76.7021H8.35796C8.24369 75.6092 7.85191 74.7609 7.17446 74.1492C6.49701 73.5375 5.64815 73.2357 4.62789 73.2357C3.7219 73.2357 2.98732 73.4641 2.43229 73.9208C1.87727 74.3776 1.59976 74.9893 1.59976 75.756C1.59976 76.4656 1.8283 77.1099 2.28538 77.689C2.74245 78.2681 3.73823 79.0185 5.2727 79.9402C7.05203 81.0005 8.24369 81.9303 8.85585 82.7215C9.468 83.5127 9.77 84.4262 9.77 85.4457C9.77 86.767 9.30476 87.8926 8.36612 88.8306C7.42748 89.7686 6.30112 90.2335 4.98702 90.2335C4.21979 90.2335 3.2485 90.0214 2.065 89.6054C1.57528 89.4342 1.26512 89.3444 1.13453 89.3444C0.857015 89.3444 0.644801 89.5565 0.489722 89.9888H-0.0163269V85.4457H0.489722C0.497884 86.7018 0.905987 87.705 1.71403 88.4554C2.52208 89.2058 3.46072 89.5891 4.53811 89.5891C5.55837 89.5891 6.37457 89.32 6.99489 88.7735C7.61521 88.227 7.91721 87.5011 7.91721 86.5958C7.91721 85.9188 7.66418 85.2663 7.15813 84.6464C6.65209 84.0265 5.59102 83.219 3.98309 82.2403C2.66899 81.4328 1.79565 80.7885 1.3549 80.3235C0.914149 79.8586 0.587666 79.3448 0.383615 78.782C0.171401 78.2192 0.0652938 77.6075 0.0652938 76.9387C0.0652938 75.65 0.489722 74.5978 1.33858 73.7985C2.18743 72.9992 3.28931 72.5913 4.64422 72.5913C5.38696 72.5913 6.20317 72.7382 7.08468 73.0318C7.49278 73.1623 7.78661 73.2357 7.94169 73.2357C8.07229 73.2357 8.17023 73.2031 8.21104 73.146C8.25185 73.0889 8.30899 72.9584 8.36612 72.7626H8.39061Z" fill="#F20C1F"/>
<path d="M26.1676 86.294V76.172C26.1676 75.1851 26.037 74.4999 25.7758 74.1166C25.5146 73.7332 25.0494 73.5212 24.3801 73.4967V73.0073H30.3221V73.4967C29.6038 73.4967 29.1059 73.6925 28.8284 74.084C28.5509 74.4755 28.4122 75.1769 28.4122 76.1801V86.6692C28.4122 87.6561 28.5509 88.3494 28.8203 88.7409C29.0896 89.1324 29.5957 89.3363 30.3221 89.3363V89.8257H26.1758V87.4767C24.6005 89.32 22.7314 90.2416 20.5684 90.2416C18.7891 90.2416 17.3934 89.7115 16.3731 88.6512C15.3528 87.5908 14.8468 86.188 14.8468 84.4507V76.1801C14.8468 75.1769 14.7162 74.4755 14.455 74.084C14.1938 73.6925 13.6878 73.4967 12.945 73.4967V73.0073H19.0258V73.4967C18.2667 73.4967 17.7607 73.6843 17.4913 74.0676C17.222 74.451 17.0914 75.1443 17.0914 76.1475V84.6627C17.0914 86.0411 17.4668 87.1178 18.2259 87.9089C18.985 88.7001 20.0297 89.0916 21.3846 89.0916C23.3843 89.0916 24.9841 88.1618 26.1921 86.294H26.1676Z" fill="#F20C1F"/>
<path d="M42.6223 89.8256V89.3363C43.5855 89.3363 44.067 89.0019 44.067 88.333C44.067 88.1454 44.0262 87.9252 43.9364 87.6887L42.3693 83.0151H36.966L35.8152 86.3918C35.5295 87.2482 35.3826 87.86 35.3826 88.2433C35.3826 88.9529 35.8233 89.32 36.713 89.3363V89.8256H32.3626V89.3363C32.9829 89.2466 33.4645 89.0426 33.8155 88.7164C34.1583 88.3901 34.5092 87.7132 34.8602 86.6936L39.5126 72.8197H41.2429L46.132 87.3135C46.4177 88.1699 46.7197 88.7164 47.0299 88.9692C47.34 89.2221 47.8379 89.3444 48.5317 89.3444V89.8338H42.606L42.6223 89.8256ZM37.2843 81.9793H42.0265L39.6432 74.8506L37.2843 81.9793Z" fill="#F20C1F"/>
<path d="M60.3585 72.7626H60.8319V76.7021H60.3259C60.2116 75.6092 59.8198 74.7609 59.1424 74.1492C58.4649 73.5375 57.6161 73.2357 56.5958 73.2357C55.6898 73.2357 54.9552 73.4641 54.4002 73.9208C53.8452 74.3776 53.5677 74.9893 53.5677 75.756C53.5677 76.4656 53.7962 77.1099 54.2533 77.689C54.7104 78.2681 55.7061 79.0185 57.2406 79.9402C59.0199 81.0005 60.2116 81.9303 60.8238 82.7215C61.4359 83.5127 61.7379 84.4262 61.7379 85.4457C61.7379 86.767 61.2727 87.8926 60.334 88.8306C59.3954 89.7686 58.269 90.2335 56.9549 90.2335C56.1877 90.2335 55.2164 90.0214 54.0329 89.6054C53.5432 89.4342 53.233 89.3444 53.1024 89.3444C52.8249 89.3444 52.6127 89.5565 52.4576 89.9888H51.9516V85.4457H52.4576C52.4658 86.7018 52.8739 87.705 53.6819 88.4554C54.49 89.2058 55.4286 89.5891 56.506 89.5891C57.5263 89.5891 58.3425 89.32 58.9628 88.7735C59.5831 88.227 59.8851 87.5011 59.8851 86.5958C59.8851 85.9188 59.6321 85.2663 59.126 84.6464C58.62 84.0265 57.5589 83.219 55.951 82.2403C54.6369 81.4328 53.7636 80.7885 53.3228 80.3235C52.8821 79.8586 52.5556 79.3448 52.3515 78.782C52.1393 78.2192 52.0332 77.6075 52.0332 76.9387C52.0332 75.65 52.4576 74.5978 53.3065 73.7985C54.1553 72.9992 55.2572 72.5913 56.6121 72.5913C57.3549 72.5913 58.1711 72.7382 59.0526 73.0318C59.4607 73.1623 59.7545 73.2357 59.9096 73.2357C60.0402 73.2357 60.1381 73.2031 60.179 73.146C60.2198 73.0889 60.2769 72.9584 60.334 72.7626H60.3585Z" fill="#F20C1F"/>
<path d="M85.5793 86.1553H86.0854L85.0488 89.8257H72.8546V89.3363C73.5403 89.3363 74.03 89.1242 74.3238 88.6919C74.6176 88.2597 74.7646 87.5419 74.7646 86.5224V75.9354C74.7646 75.0301 74.6258 74.3939 74.3565 74.035C74.0871 73.6761 73.5811 73.4967 72.8546 73.4967V73.0073H78.8783V73.4967C78.209 73.4967 77.7274 73.7006 77.4336 74.1166C77.1397 74.5326 76.9928 75.2095 76.9928 76.1557V87.3951C76.9928 88.015 77.1234 88.4391 77.3846 88.6675C77.6458 88.8959 78.1518 89.01 78.8946 89.01H82.241C83.2776 89.01 83.9959 88.8306 84.404 88.4717C84.8121 88.1128 85.2039 87.338 85.563 86.1553H85.5793Z" fill="#F20C1F"/>
<path d="M99.1202 79.3693H99.6262V83.4556H99.1202C98.9406 82.7378 98.7202 82.2892 98.4591 82.1098C98.1979 81.9303 97.6347 81.8406 96.7695 81.8406H92.5905V87.86C92.5905 88.2841 92.6803 88.5777 92.868 88.749C93.0558 88.9203 93.3741 89.01 93.823 89.01H96.7614C97.8143 89.01 98.5407 88.9529 98.9406 88.8388C99.3406 88.7246 99.6834 88.5125 99.9609 88.2026C100.238 87.8926 100.532 87.3869 100.851 86.6936H101.357L100.581 89.8338H88.4605V89.3444C89.2196 89.3444 89.7256 89.1487 89.9787 88.7653C90.2317 88.382 90.3623 87.6887 90.3623 86.71V76.1883C90.3623 75.1687 90.2317 74.4591 89.9623 74.0758C89.693 73.6925 89.1951 73.5049 88.4524 73.5049V73.0155H100.573V75.8294H100.255C100.083 75.0301 99.8384 74.4918 99.512 74.2308C99.1855 73.9698 98.4917 73.8393 97.4225 73.8393H92.5742V81.0331H97.2837C97.9285 81.0331 98.3611 80.919 98.5978 80.6906C98.8345 80.4622 99.0059 80.0299 99.1039 79.3856L99.1202 79.3693Z" fill="#F20C1F"/>
<path d="M120.423 73.0073H124.398V73.4967C123.133 73.5293 122.505 74.2715 122.505 75.7315C122.505 75.8539 122.505 75.9844 122.521 76.1149L123.37 86.4816C123.468 87.5827 123.655 88.3249 123.933 88.6838C124.21 89.0427 124.725 89.2629 125.459 89.3281V89.8175H119.403V89.3281C120.048 89.2221 120.497 89.01 120.758 88.6919C121.019 88.3738 121.15 87.8926 121.15 87.232C121.15 87.0933 121.15 86.9465 121.133 86.7834L120.235 75.911L114.473 89.8094H114.032L108.343 75.9436L107.397 86.2858C107.388 86.4489 107.38 86.6039 107.38 86.7426C107.38 88.1944 108.107 89.0508 109.568 89.32V89.8094H104.328V89.32C105.03 89.2221 105.527 88.9774 105.838 88.5777C106.148 88.1781 106.36 87.3951 106.474 86.2206L107.494 74.6467C106.899 74.0024 106.172 73.6109 105.299 73.4722V72.9828H109.559L114.946 86.2124L120.407 72.9828L120.423 73.0073Z" fill="#F20C1F"/>
<path d="M136.225 89.8257H128.471V89.3363C129.189 89.3363 129.687 89.1405 129.965 88.7572C130.242 88.3738 130.381 87.6724 130.381 86.6692V76.1801C130.381 75.1606 130.25 74.451 129.989 74.0676C129.728 73.6843 129.222 73.4967 128.479 73.4967V73.0073H134.829C136.649 73.0073 138.078 73.3825 139.122 74.1329C140.167 74.8833 140.69 75.8702 140.69 77.1018C140.69 78.9043 139.563 80.1767 137.302 80.9108V80.9842C138.584 81.2452 139.629 81.808 140.437 82.6807C141.245 83.5535 141.653 84.5648 141.653 85.6986C141.653 86.9383 141.155 87.9416 140.167 88.6919C139.18 89.4423 137.866 89.8175 136.241 89.8175L136.225 89.8257ZM132.601 73.6517V80.7803H134.34C135.556 80.7803 136.527 80.4622 137.245 79.826C137.963 79.1898 138.323 78.3334 138.323 77.2486C138.323 76.1149 137.972 75.2258 137.262 74.5978C136.56 73.9698 135.564 73.6517 134.274 73.6517H132.593H132.601ZM134.201 81.4247H132.601V86.3592C132.601 87.4522 132.723 88.1944 132.96 88.5859C133.197 88.9856 133.662 89.1813 134.34 89.1813H135.735C136.715 89.1813 137.515 88.8551 138.127 88.2026C138.739 87.5501 139.057 86.6692 139.057 85.5681C139.057 84.312 138.616 83.3088 137.727 82.5584C136.837 81.7998 135.662 81.4247 134.193 81.4247H134.201Z" fill="#F20C1F"/>
<path d="M150.092 82.0364H148.729V86.661C148.729 87.6561 148.868 88.3494 149.154 88.7409C149.439 89.1324 149.937 89.3281 150.656 89.3281V89.8175H144.599V89.3281C145.342 89.3281 145.848 89.1324 146.109 88.7409C146.37 88.3494 146.501 87.6561 146.501 86.661V76.1149C146.501 75.1198 146.37 74.4347 146.117 74.0595C145.864 73.6843 145.35 73.4885 144.599 73.4885V72.9991H151.504C153.21 72.9991 154.565 73.4151 155.585 74.2389C156.606 75.0627 157.112 76.123 157.112 77.4036C157.112 79.4671 155.953 80.8455 153.643 81.5307C154.149 81.8569 154.647 82.3055 155.128 82.8683C155.61 83.4392 156.247 84.3854 157.03 85.7067C157.912 87.1748 158.597 88.1291 159.095 88.5859C159.593 89.0426 160.107 89.2873 160.638 89.3281V89.8175H157.193C156.483 88.9692 155.626 87.7132 154.622 86.0656C153.553 84.3364 152.712 83.2272 152.108 82.746C151.504 82.2647 150.827 82.0282 150.092 82.0282V82.0364ZM150.492 73.6517H148.729V81.3349H150.794C152.027 81.3349 152.998 80.9842 153.7 80.2746C154.402 79.565 154.753 78.627 154.753 77.4607C154.753 76.2943 154.361 75.4053 153.586 74.7038C152.81 74.0024 151.774 73.6517 150.492 73.6517Z" fill="#F20C1F"/>
<path d="M173.118 89.8256V89.3363C174.081 89.3363 174.562 89.0019 174.562 88.333C174.562 88.1454 174.521 87.9252 174.432 87.6887L172.864 83.0151H167.461L166.31 86.3918C166.025 87.2482 165.878 87.86 165.878 88.2433C165.878 88.9529 166.319 89.32 167.208 89.3363V89.8256H162.858V89.3363C163.478 89.2466 163.96 89.0426 164.311 88.7164C164.653 88.3901 165.004 87.7132 165.355 86.6936L170.008 72.8197H171.738L176.627 87.3135C176.913 88.1699 177.215 88.7164 177.525 88.9692C177.835 89.2221 178.333 89.3444 179.027 89.3444V89.8338H173.101L173.118 89.8256ZM167.78 81.9793H172.522L170.138 74.8506L167.78 81.9793Z" fill="#F20C1F"/>
<path d="M194.265 73.4967V73.0073H199.342V73.4967C198.526 73.4967 197.963 73.6843 197.653 74.0676C197.343 74.451 197.179 75.1443 197.179 76.1475V89.8257H196.665L184.74 75.2014V87.0117C184.74 87.8437 184.912 88.4391 185.246 88.798C185.581 89.1569 186.152 89.3363 186.944 89.3363V89.8257H181.835V89.3363C182.651 89.3363 183.198 89.1242 183.483 88.7001C183.769 88.276 183.916 87.5256 183.916 86.4571V76.6124C183.916 75.5521 183.72 74.7854 183.336 74.3205C182.953 73.8556 182.308 73.5783 181.418 73.4967V73.0073H185.736L196.306 86.0982V76.2617C196.306 75.2258 196.159 74.5081 195.865 74.1003C195.571 73.6925 195.033 73.4885 194.249 73.4885L194.265 73.4967Z" fill="#F20C1F"/>
<path d="M218.213 72.7626V77.7788H217.707C217.307 76.2209 216.662 75.0709 215.781 74.3368C214.899 73.6027 213.716 73.2357 212.247 73.2357C210.337 73.2357 208.818 73.9208 207.7 75.2992C206.582 76.6777 206.019 78.5128 206.019 80.8048C206.019 83.3169 206.607 85.3397 207.79 86.8731C208.974 88.4065 210.516 89.1732 212.434 89.1732C215.087 89.1732 217.038 87.9415 218.303 85.4702L218.744 85.8862C218.18 87.2238 217.266 88.2841 216.009 89.059C214.752 89.8338 213.316 90.2253 211.716 90.2253C210.198 90.2253 208.786 89.8664 207.488 89.1487C206.19 88.4309 205.194 87.444 204.493 86.1879C203.791 84.9319 203.44 83.4882 203.44 81.8488C203.44 79.1735 204.264 76.955 205.905 75.2014C207.545 73.4477 209.626 72.5669 212.132 72.5669C212.973 72.5669 214.042 72.7137 215.332 73.0073C216.058 73.1786 216.564 73.2683 216.842 73.2683C217.274 73.2683 217.576 73.0889 217.748 72.7381H218.221L218.213 72.7626ZM210.908 89.5973H211.414L210.924 91.4161C211.52 91.5303 212.002 91.7832 212.361 92.1665C212.72 92.5499 212.899 93.0148 212.899 93.5531C212.899 94.3116 212.565 94.9071 211.896 95.3475C211.226 95.7879 210.304 96.0082 209.129 96.0082C208.998 96.0082 208.859 96.0082 208.729 95.9918V95.4291C210.516 95.3964 211.414 94.85 211.414 93.7815C211.414 93.1861 210.941 92.7782 209.994 92.5499L210.908 89.5973Z" fill="#F20C1F"/>
<path d="M231.778 89.8256V89.3363C232.741 89.3363 233.223 89.0019 233.223 88.333C233.223 88.1454 233.182 87.9252 233.092 87.6887L231.525 83.0151H226.122L224.971 86.3918C224.685 87.2482 224.539 87.86 224.539 88.2433C224.539 88.9529 224.979 89.32 225.869 89.3363V89.8256H221.519V89.3363C222.139 89.2466 222.62 89.0426 222.971 88.7164C223.314 88.3901 223.665 87.7132 224.016 86.6936L228.669 72.8197H230.399L235.288 87.3135C235.574 88.1699 235.876 88.7164 236.186 88.9692C236.496 89.2221 236.994 89.3444 237.688 89.3444V89.8338H231.762L231.778 89.8256ZM226.448 81.9793H231.191L228.807 74.8506L226.448 81.9793Z" fill="#F20C1F"/>
<path d="M249.515 72.7626H249.988V76.7021H249.482C249.368 75.6092 248.976 74.7609 248.298 74.1492C247.621 73.5375 246.772 73.2357 245.752 73.2357C244.846 73.2357 244.111 73.4641 243.556 73.9208C243.001 74.3776 242.724 74.9893 242.724 75.756C242.724 76.4656 242.952 77.1099 243.409 77.689C243.866 78.2681 244.862 79.0185 246.397 79.9402C248.176 81.0005 249.368 81.9303 249.98 82.7215C250.592 83.5127 250.894 84.4262 250.894 85.4457C250.894 86.767 250.429 87.8926 249.49 88.8306C248.551 89.7686 247.425 90.2335 246.111 90.2335C245.344 90.2335 244.372 90.0214 243.189 89.6054C242.699 89.4342 242.389 89.3444 242.258 89.3444C241.981 89.3444 241.769 89.5565 241.614 89.9888H241.108V85.4457H241.614C241.622 86.7018 242.03 87.705 242.838 88.4554C243.646 89.2058 244.585 89.5891 245.662 89.5891C246.682 89.5891 247.498 89.32 248.119 88.7735C248.739 88.227 249.041 87.5011 249.041 86.5958C249.041 85.9188 248.788 85.2663 248.282 84.6464C247.776 84.0265 246.715 83.219 245.107 82.2403C243.793 81.4328 242.92 80.7885 242.479 80.3235C242.038 79.8586 241.712 79.3448 241.508 78.782C241.295 78.2192 241.189 77.6075 241.189 76.9387C241.189 75.65 241.614 74.5978 242.462 73.7985C243.311 72.9992 244.413 72.5913 245.768 72.5913C246.511 72.5913 247.327 72.7382 248.209 73.0318C248.617 73.1623 248.91 73.2357 249.066 73.2357C249.196 73.2357 249.294 73.2031 249.335 73.146C249.376 73.0889 249.433 72.9584 249.49 72.7626H249.515Z" fill="#F20C1F"/>
<path d="M180.178 10.0078L238.079 67.8607H180.178V10.0078Z" fill="#F20C1F"/>
<path d="M251 3.79269V61.6537L191.898 3.79269H251Z" fill="#F20C1F"/>
<path d="M0 3.46643H18.1035C24.4781 3.46643 29.5957 5.28529 33.4563 8.91486C37.317 12.5526 39.2514 17.3403 39.2514 23.2863C39.2514 29.5585 37.2925 34.4686 33.3829 38.0248C29.4732 41.581 24.0618 43.3509 17.1403 43.3509H14.6264V67.8525H0V3.46643ZM14.6264 15.8151V31.0104C17.9076 30.9451 20.3317 30.3171 21.8907 29.1262C23.4496 27.9354 24.2332 26.0595 24.2332 23.4821C24.2332 20.7171 23.4741 18.7595 21.9641 17.6177C20.4542 16.4758 18.0055 15.8722 14.6264 15.807V15.8151Z" fill="#146EA6"/>
<path d="M90.7704 67.8606H75.5645L73.0995 57.1025H57.6569L55.1021 67.8606H40.19L57.2733 3.46643H73.6872L90.7786 67.8606H90.7704ZM70.3081 45.5286C68.1206 35.9449 66.4801 26.8262 65.3864 18.1804H65.1905C64.0315 27.0872 62.4072 36.2059 60.3177 45.5286H70.3081Z" fill="#146EA6"/>
<path d="M91.7172 3.46643H108.76C115.648 3.46643 121.084 5.23635 125.076 8.7762C129.067 12.316 131.058 17.1201 131.058 23.1966C131.058 26.3123 130.299 29.3302 128.789 32.242C127.279 35.1538 125.076 37.3478 122.178 38.8241L133.858 67.8606H118.415L106.588 38.5305H106.344V67.8606H91.7172V3.46643ZM106.335 15.913V31.2061C112.8 31.0756 116.04 28.8081 116.04 24.4037C116.04 21.4104 115.289 19.2734 113.796 17.9847C112.302 16.696 109.813 16.0109 106.335 15.913Z" fill="#146EA6"/>
<path d="M179.149 67.8607H165.821L163.666 58.4319H150.125L147.88 67.8607H134.805L149.79 11.4025H164.18L179.166 67.8607H179.149ZM147.897 3.89057L158.638 0L166.343 7.69958L152.272 8.26236L147.889 3.88241L147.897 3.89057ZM160.752 50.3572C159.038 42.8452 157.748 35.7003 156.891 28.9223H156.736C155.83 35.9042 154.557 43.0491 152.916 50.3572H160.752Z" fill="#146EA6"/>
<path d="M215.585 15.7499L222.123 28.9713L236.716 31.0919L226.155 41.3771L228.652 55.9117L215.585 49.0522L202.525 55.9117L205.023 41.3771L194.453 31.0919L209.055 28.9713L215.585 15.7499Z" fill="#146EA6"/>
</g>
<defs>
<clipPath id="clip0_214_39">
<rect width="251" height="96" fill="white"/>
</clipPath>
</defs>
</svg>
